PathFileType	4	(X/Y/Z)	C:\Users\Basilio\Documents\Thesis Gigler\squatting_fais\c3dfiles\044\SJ_pre2\markers_experimental.trc
DataRate	CameraRate	NumFrames	NumMarkers	Units	OrigDataRate	OrigDataStartFrame	OrigNumFrames
200.000000	200.000000	4	62	mm	200.000000	427	1708
Frame#	Time	FHD			LBHD			RBHD			C7			T10			CLAV			LSHO			LUUPA			LMUPA			LDUPA			LLEP			LMEP			LRAD			LUL			LRFIN			RSHO			RUPA1			RMUPA			RDUPA			RLEP			RMEP			RRAD			RUL			RUFIN			LASI			RASI			USACR			LSACR			LTHI1			LTHI2			LTHI3			LTHI4			LLFC			LMFC			LTIB1			LTIB2			LTIB3			LTIB4			LLMAL			LMMAL			LHEE			LMT1			LMT2			LMT5			RTHI			RTHI2			RTHI3			RTHI4			RLFC			RMFC			RTIB1			RTIB2			RTIB3			RTIB4			RLMAL			RMMAL			RHEE			RMT1			RMT2			RMT5			RSACR			*61			
		X1	Y1	Z1	X2	Y2	Z2	X3	Y3	Z3	X4	Y4	Z4	X5	Y5	Z5	X6	Y6	Z6	X7	Y7	Z7	X8	Y8	Z8	X9	Y9	Z9	X10	Y10	Z10	X11	Y11	Z11	X12	Y12	Z12	X13	Y13	Z13	X14	Y14	Z14	X15	Y15	Z15	X16	Y16	Z16	X17	Y17	Z17	X18	Y18	Z18	X19	Y19	Z19	X20	Y20	Z20	X21	Y21	Z21	X22	Y22	Z22	X23	Y23	Z23	X24	Y24	Z24	X25	Y25	Z25	X26	Y26	Z26	X27	Y27	Z27	X28	Y28	Z28	X29	Y29	Z29	X30	Y30	Z30	X31	Y31	Z31	X32	Y32	Z32	X33	Y33	Z33	X34	Y34	Z34	X35	Y35	Z35	X36	Y36	Z36	X37	Y37	Z37	X38	Y38	Z38	X39	Y39	Z39	X40	Y40	Z40	X41	Y41	Z41	X42	Y42	Z42	X43	Y43	Z43	X44	Y44	Z44	X45	Y45	Z45	X46	Y46	Z46	X47	Y47	Z47	X48	Y48	Z48	X49	Y49	Z49	X50	Y50	Z50	X51	Y51	Z51	X52	Y52	Z52	X53	Y53	Z53	X54	Y54	Z54	X55	Y55	Z55	X56	Y56	Z56	X57	Y57	Z57	X58	Y58	Z58	X59	Y59	Z59	X60	Y60	Z60	X61	Y61	Z61	X62	Y62	Z62	

428	2.135	-271.6805114746094	1731.897338867188	-885.0765380859377	-391.6351318359376	1728.4326171875	-986.4995117187502	-466.3641052246095	1719.474243164063	-837.9479980468752	-502.7056884765626	1539.951293945313	-925.6124267578127	-537.3875732421876	1234.67919921875	-929.3383789062502	-366.2151184082032	1490.442504882813	-911.9213867187502	-389.6360778808595	1534.156127929688	-1095.6083984375	-453.2020263671876	1368.162719726563	-1251.6044921875	-421.9920349121095	1328.47705078125	-1243.674194335938	-461.658660888672	1308.336181640625	-1286.199340820313	-459.9652404785157	1249.43017578125	-1301.77392578125	-531.9771118164064	1241.361572265625	-1258.037109375	-429.9764099121095	1018.666198730469	-1140.113159179688	-391.1743774414064	998.7454223632815	-1194.004638671875	-378.1704406738282	1007.883239746094	-1096.66943359375	-431.1996459960939	1510.51318359375	-721.6394653320314	-514.0833740234376	1341.324340820313	-592.2187500000001	-480.8726501464845	1302.973754882813	-591.3288574218751	-524.2614746093751	1280.046264648438	-558.3269042968751	-518.6972656250001	1218.383422851563	-542.6621704101564	-586.2202758789064	1205.382568359375	-597.0865478515626	-452.3062438964845	997.5679931640627	-703.8880004882814	-425.484100341797	976.6857910156252	-640.5226440429689	-389.3658752441407	994.8809814453127	-740.4656982421876	-350.0467834472657	1027.520263671875	-1031.806884765625	-353.4764099121094	1007.488220214844	-812.819030761719	-519.2770996093751	1082.3681640625	-921.9797363281252	-523.9730224609376	1050.72119140625	-949.5703125000002	-465.081268310547	808.069274902344	-1124.836669921875	-437.0049133300782	728.8080444335939	-1131.1220703125	-389.8253479003907	727.2686767578126	-1122.180419921875	-468.9740600585939	677.6171875000001	-1123.029418945313	-465.7462768554689	517.5945434570314	-1122.654907226563	-453.1697082519532	496.7945861816407	-1003.20751953125	-440.687957763672	335.9469909667969	-1075.321533203125	-470.8480834960939	298.6702575683594	-1150.663696289063	-438.9039611816407	293.5609741210938	-1116.715942382813	-450.1713256835939	211.9597930908204	-1096.711059570313	-501.9829406738282	96.81301116943362	-1155.036987304688	-476.4778747558595	99.52799224853518	-1071.681762695313	-555.4208374023439	48.34779739379884	-1105.8759765625	-338.7748107910157	61.9971046447754	-1103.4013671875	-343.4169006347657	64.83143615722658	-1149.756958007813	-381.6323547363282	41.69274902343751	-1194.185180664063	-463.0314941406251	753.8568725585939	-732.8544921875001	-424.1549072265626	699.1222534179689	-723.8561401367189	-391.0310974121095	700.2907104492189	-729.2288818359376	-450.2521362304689	619.7840576171876	-738.5534057617189	-454.3043212890626	505.4793395996095	-741.1921386718751	-454.7634582519532	491.6872558593751	-864.226501464844	-417.009735107422	374.4831237792969	-757.4069824218751	-492.7036743164064	310.4794921875001	-708.4660644531251	-450.6287231445314	300.4816894531251	-723.8814086914064	-442.6215820312501	247.1419982910157	-745.0929565429689	-516.1450195312501	96.66333007812503	-723.1861572265626	-491.7751464843751	99.80442810058597	-804.4034423828127	-567.6857910156251	50.09444808959962	-768.5098266601565	-355.2789001464844	62.84016036987306	-772.4952392578127	-351.8998413085938	60.47888565063478	-735.9688720703126	-389.3135375976564	41.48003387451173	-683.6018676757814	nan	nan	nan	nan	nan	nan	
429	2.14	-270.1486816406251	1730.750610351563	-885.140563964844	-391.695526123047	1727.850952148438	-986.2037353515627	-465.2669067382814	1719.86669921875	-837.7368774414065	-502.9162597656251	1539.989990234375	-925.518981933594	-537.6096801757814	1234.627197265625	-929.2106933593752	-366.4104919433594	1490.377075195313	-911.8612060546877	-389.743621826172	1534.0849609375	-1095.57666015625	-453.3921203613282	1368.1396484375	-1251.528930664063	-422.1355895996095	1328.43408203125	-1243.598999023438	-461.8035583496095	1308.277587890625	-1286.148315429688	-460.1261291503907	1249.389282226563	-1301.692260742188	-532.1925048828126	1241.314453125	-1257.999633789063	-430.1071166992189	1018.711486816406	-1139.988403320313	-391.4534301757814	998.8164672851565	-1193.857788085938	-378.2487487792969	1007.996826171875	-1096.5048828125	-431.5515136718751	1510.501953125	-721.5521240234376	-514.4027099609376	1341.43017578125	-592.1724243164064	-480.9884643554689	1302.966674804688	-591.2550659179689	-524.3597412109376	1280.042114257813	-558.2508544921876	-518.8262939453126	1218.533325195313	-542.5949096679689	-586.3108520507814	1205.362426757813	-596.9349975585939	-452.4817199707032	997.655456542969	-703.7452392578126	-425.5020446777345	976.615661621094	-640.3981933593751	-389.5879516601564	994.911804199219	-740.3225097656251	-350.2091979980469	1027.505126953125	-1031.666015625	-353.7323913574219	1007.446594238281	-812.688659667969	-519.5175781250001	1082.434692382813	-921.8015136718752	-524.2707519531251	1050.913208007813	-949.4122314453127	-465.2207031250001	808.0574951171877	-1124.780517578125	-437.0039367675782	728.8106689453126	-1130.987182617188	-390.0269165039064	727.1882324218751	-1121.970825195313	-469.0957336425782	677.5964355468751	-1122.9287109375	-465.8052368164064	517.5614013671876	-1122.606689453125	-453.1614074707032	496.7714843750001	-1003.18017578125	-440.7517395019532	335.9394531250001	-1075.31396484375	-470.903778076172	298.6066284179688	-1150.651489257813	-439.0237121582032	293.2987976074219	-1116.689575195313	-450.1647033691407	212.0007324218751	-1096.717529296875	-501.9529113769532	96.75785827636722	-1155.067016601563	-476.3067932128907	99.39304351806643	-1071.71728515625	-555.4281005859376	48.34346771240236	-1105.868286132813	-338.8029479980469	61.99071121215822	-1103.416259765625	-343.4502563476563	64.87574005126955	-1149.794311523438	-381.6109924316407	41.75310897827149	-1194.186157226563	-463.0226440429689	753.8935546875001	-732.7574462890626	-424.0269165039064	699.1456298828126	-723.7451171875001	-390.8624877929689	700.2685546875001	-729.0788574218751	-450.0664062500001	619.7836303710939	-738.4104003906251	-453.7686157226564	505.2958068847657	-740.9811401367189	-454.3204650878907	491.6505432128907	-864.0479736328127	-416.591033935547	374.5953063964844	-757.2825927734376	-492.4535522460939	310.3874206542969	-708.3334960937501	-450.3845520019532	300.2278747558594	-723.8007202148439	-442.381561279297	247.0052947998047	-744.9631347656251	-516.0761718750001	96.70690917968753	-723.1451416015626	-491.7810974121095	99.83660125732425	-804.4134521484377	-567.6825561523439	50.1018753051758	-768.4739990234377	-355.2847900390626	62.83214187622072	-772.5001220703127	-351.8854370117188	60.46899032592775	-735.9693603515626	-389.244842529297	41.54053497314454	-683.5827636718751	nan	nan	nan	nan	nan	nan	
430	2.145	-269.3199157714844	1729.195068359375	-884.9246826171877	-390.0683593750001	1728.327880859375	-986.0267333984377	-464.0905761718751	1720.4375	-837.423034667969	-503.0484313964845	1540.05859375	-925.4502563476565	-537.8375854492189	1234.588623046875	-929.0656738281252	-366.6916809082032	1490.357421875	-911.7392578125002	-390.0352783203126	1534.070190429688	-1095.476928710938	-453.5890197753907	1368.083618164063	-1251.455322265625	-422.3342285156251	1328.465209960938	-1243.4580078125	-461.9488525390626	1308.3203125	-1286.086669921875	-460.4323120117189	1249.2578125	-1301.600219726563	-532.5073852539064	1241.256713867188	-1257.915405273438	-430.1863098144532	1018.764282226563	-1139.828125	-391.6704711914064	998.7139282226565	-1193.622680664063	-378.4452209472657	1008.053833007813	-1096.299926757813	-431.684051513672	1510.455200195313	-721.4775390625001	-514.6849365234376	1341.386108398438	-592.0377197265626	-481.1324768066407	1303.074096679688	-591.2242431640626	-524.5866088867189	1280.148681640625	-558.1367187500001	-518.9555053710939	1218.588134765625	-542.5136718750001	-586.5159301757814	1205.441772460938	-596.7714843750001	-452.7251892089845	997.6275634765627	-703.5092773437501	-425.5703430175782	976.7061157226565	-640.2040405273439	-389.7026672363282	994.928161621094	-740.1655273437501	-350.3077087402344	1027.561279296875	-1031.556274414063	-354.1098632812501	1007.458923339844	-812.453796386719	-519.7392578125001	1082.416015625	-921.5913696289065	-524.3186035156251	1050.614501953125	-949.2435302734377	-465.3009338378907	808.1267089843752	-1124.665405273438	-437.1436157226564	728.8196411132814	-1130.847290039063	-390.235809326172	727.1708374023439	-1121.737182617188	-469.1533508300782	677.6091918945314	-1122.8017578125	-465.8731079101564	517.5092773437501	-1122.561157226563	-453.2353515625001	496.7834777832032	-1003.149291992188	-440.7668457031251	335.9166870117188	-1075.33251953125	-470.9363403320314	298.5921630859376	-1150.593017578125	-438.991424560547	293.6191101074219	-1116.626220703125	-450.253143310547	211.9406280517579	-1096.635620117188	-501.9573669433595	96.78778076171878	-1155.083862304688	-476.548797607422	99.60464477539065	-1071.77490234375	-555.3956909179689	48.27766799926759	-1105.88818359375	-338.7885131835938	62.1458206176758	-1103.531616210938	-343.4993591308594	64.79489135742189	-1149.735229492188	-381.1281738281251	42.31333541870118	-1194.345336914063	-462.9229736328126	753.8307495117189	-732.5884399414064	-424.1954956054689	699.6101074218751	-724.2561645507814	-390.6846008300782	700.2830810546876	-728.9616088867189	-449.9066467285157	619.7759399414064	-738.3195190429689	-453.3888244628907	505.1975708007814	-740.8695678710939	-453.8360900878907	491.6605529785157	-863.8789062500002	-416.2662353515626	374.4092712402344	-757.2891235351564	-492.2482910156251	310.4718017578126	-708.2907714843751	-450.1242980957032	300.1969604492188	-723.7308349609376	-442.1756286621095	246.973861694336	-744.9030151367189	-516.0659179687501	96.71677398681643	-723.1736450195314	-491.7239074707032	99.90874481201175	-804.4157714843752	-567.6633911132814	50.1217384338379	-768.4890747070315	-355.3098754882813	62.8514976501465	-772.5144042968752	-351.8889160156251	60.4801483154297	-735.9717407226564	-389.2594299316407	41.53721237182618	-683.5917358398439	nan	nan	nan	nan	nan	nan	
431	2.15	-267.7866210937501	1727.92578125	-885.0211181640627	-388.9917297363282	1728.097290039063	-985.8786621093752	-462.9621582031251	1721.080200195313	-837.1370849609377	-503.2114562988282	1540.120239257813	-925.3037719726565	-538.1068725585939	1234.592407226563	-928.904235839844	-367.0618286132813	1490.139282226563	-911.5928344726565	-390.1891479492189	1534.267578125	-1095.333984375	-453.7254943847657	1368.049926757813	-1251.386108398438	-422.5404663085939	1328.41259765625	-1243.364990234375	-462.0984802246095	1308.285034179688	-1286.026733398438	-460.5016479492189	1249.226684570313	-1301.483276367188	-532.7218017578126	1241.25341796875	-1257.836181640625	-430.0996093750001	1018.706665039063	-1139.631225585938	-391.7549438476564	998.6760253906252	-1193.467651367188	-378.5194091796876	1008.082580566406	-1096.1201171875	-431.8272094726564	1510.4599609375	-721.4763183593751	-514.8818359375001	1341.377685546875	-591.9114379882814	-481.2614746093751	1303.039672851563	-591.1094970703126	-524.6041870117189	1280.092895507813	-557.9963989257814	-519.1113281250001	1218.517211914063	-542.3228759765626	-586.7011718750001	1205.41845703125	-596.6060791015626	-453.1351928710939	997.797302246094	-703.2949218750001	-425.770233154297	976.7373046875002	-639.9616088867189	-389.939178466797	994.9751586914065	-739.9263916015626	-350.5074462890626	1027.588134765625	-1031.401123046875	-354.2199707031251	1007.369323730469	-812.349792480469	-519.9992675781251	1082.3828125	-921.3853759765627	-524.7086791992189	1050.53125	-949.0186767578127	-465.0571289062501	808.3164062500002	-1124.14013671875	-437.242645263672	728.8487548828126	-1130.673583984375	-390.3172912597657	727.2217407226564	-1121.503173828125	-469.2528076171876	677.6744384765626	-1122.671997070313	-465.8634033203126	517.5194702148439	-1122.485595703125	-453.191619873047	496.749969482422	-1003.095031738281	-440.8157348632814	335.9355468750001	-1075.223999023438	-470.9393005371095	298.6087036132813	-1150.593872070313	-439.0138244628907	293.5299682617188	-1116.622314453125	-450.3811645507814	211.9776306152344	-1096.596435546875	-501.9797363281251	96.76175689697268	-1155.14208984375	-476.5021972656251	99.601921081543	-1071.79541015625	-555.4308471679689	48.2953224182129	-1105.89111328125	-338.3838500976563	62.24724197387697	-1103.750122070313	-343.4960632324219	64.87097930908205	-1149.75390625	-381.6350708007813	41.68108749389649	-1194.169189453125	-462.8025207519532	753.7269287109376	-732.4429931640626	-424.0520629882814	699.4613647460939	-724.1328735351564	-390.4742736816407	700.2987060546876	-728.6009521484376	-449.3905334472657	619.4310302734376	-737.9243774414064	-452.8314819335939	504.8097229003907	-740.5834960937501	-453.1986694335939	491.6204528808595	-863.7563476562502	-415.9560852050782	374.2528991699219	-757.1694335937501	-491.9695129394532	310.4892578125001	-708.2908325195314	-449.9541625976564	300.1208190917969	-723.6990966796876	-441.8948974609376	246.9773406982422	-744.9129028320314	-516.0698242187501	96.74829864501956	-723.1568603515626	-491.6656494140626	99.8825607299805	-804.4114990234377	-567.6692504882814	50.0914764404297	-768.4575805664065	-355.2936706542969	62.83668518066408	-772.4992675781252	-351.8928527832032	60.47763824462892	-735.9675292968751	-389.2694702148439	41.52928543090821	-683.5942382812501	nan	nan	nan	nan	nan	nan	
